<svg xmlns="http://www.w3.org/2000/svg" viewBox="0 0 200 230">
  <defs>
    <linearGradient id="fCrest" x1="0" y1="0" x2="0" y2="1">
      <stop offset="0" stop-color="#e0483a"/>
      <stop offset=".55" stop-color="#a3231c"/>
      <stop offset="1" stop-color="#6d1512"/>
    </linearGradient>
    <linearGradient id="fHelm" x1="0" y1="0" x2="0" y2="1">
      <stop offset="0" stop-color="#ecd27a"/>
      <stop offset=".45" stop-color="#c9a227"/>
      <stop offset="1" stop-color="#6e5426"/>
    </linearGradient>
  </defs>
  <path d="M24 120 C30 46 62 12 100 10 C138 12 170 46 176 120 C154 96 129 86 100 86 C71 86 46 96 24 120 Z" fill="url(#fCrest)"/>
  <path d="M34 114 C38 60 64 32 100 32 C136 32 162 60 166 114 L166 152 L149 201 L125 179 L100 191 L75 179 L51 201 L34 152 Z" fill="url(#fHelm)" stroke="#3d2f14" stroke-width="4"/>
  <path d="M63 127 L137 127 L133 159 L117 177 L100 185 L83 177 L67 159 Z" fill="#171208"/>
  <path d="M91 123 L109 123 L106 174 L94 174 Z" fill="#d9b44f"/>
</svg>
